<svg width="244" height="18" viewBox="0 0 244 18" fill="none" xmlns="http://www.w3.org/2000/svg">
<path d="M211.318 0.576355C210.907 0.945814 210.701 1.41872 210.701 1.99507C210.701 2.55665 210.907 3.02956 211.318 3.41379C211.729 3.78325 212.273 3.96798 212.949 3.96798C213.625 3.96798 214.168 3.78325 214.58 3.41379C214.991 3.02956 215.197 2.55665 215.197 1.99507C215.197 1.41872 214.991 0.945814 214.58 0.576355C214.168 0.192118 213.625 0 212.949 0C212.273 0 211.729 0.192118 211.318 0.576355Z" fill="#1D7CB1"/>
<path d="M214.822 17.8448V5.47537H211.053V17.8448H214.822Z" fill="#1D7CB1"/>
<path d="M139.887 3.79064C139.27 3.79064 138.822 3.92365 138.543 4.18965C138.264 4.45566 138.11 4.88424 138.08 5.47537H140.306V8.66749H138.08V17.8448H134.311V8.66749H132.835V5.47537H134.311V5.34236C134.311 3.80542 134.752 2.62315 135.634 1.79557C136.53 0.953203 137.823 0.53202 139.513 0.53202C139.865 0.53202 140.13 0.53941 140.306 0.554188V3.81281L139.887 3.79064Z" fill="#1D7CB1"/>
<path d="M94.4841 12.5911L98.1648 17.8448H102.705L97.6358 11.6601L102.595 5.47537H98.1648L94.4841 10.4409V1.44089H90.7152V17.8448H94.4841V12.5911Z" fill="#1D7CB1"/>
<path d="M37.3709 14.5862V17.8448H35.6738C34.2339 17.8448 33.1098 17.4901 32.3017 16.7808C31.5082 16.0567 31.1115 14.867 31.1115 13.2118V8.66749H29.4585V5.52984H37.3489V8.66749H34.8804V13.2783C34.8804 13.766 34.9759 14.1059 35.1669 14.298C35.3726 14.4901 35.7106 14.5862 36.1808 14.5862H37.3709Z" fill="#1D7CB1"/>
<path fill-rule="evenodd" clip-rule="evenodd" d="M7.73608 5.96305C7.06019 5.53448 6.25205 5.3202 5.31167 5.3202C4.29782 5.3202 3.38683 5.57882 2.57869 6.09606C1.78525 6.59852 1.15343 7.33005 0.683244 8.29064C0.227749 9.23645 0 10.3596 0 11.6601C0 12.9458 0.227749 14.069 0.683244 15.0296C1.15343 15.9901 1.78525 16.7291 2.57869 17.2463C3.38683 17.7488 4.29782 18 5.31167 18C6.25205 18 7.06019 17.7857 7.73608 17.3571C8.41198 16.9286 8.91156 16.3448 9.23481 15.6059V17.8448H12.9816V5.47537H9.23481V7.71429C8.91156 6.97537 8.41198 6.39163 7.73608 5.96305ZM4.56231 9.44335C5.06188 8.91133 5.71574 8.64532 6.52388 8.64532C7.31732 8.64532 7.96383 8.91872 8.46341 9.46552C8.97768 9.99754 9.23481 10.7291 9.23481 11.6601C9.23481 12.5764 8.97768 13.3079 8.46341 13.8547C7.96383 14.4015 7.31732 14.6749 6.52388 14.6749C5.71574 14.6749 5.06188 14.4089 4.56231 13.8768C4.07742 13.3448 3.83498 12.6059 3.83498 11.6601C3.83498 10.7143 4.07742 9.97537 4.56231 9.44335Z" fill="#1D7CB1"/>
<path d="M27.8088 17.8448V5.47537H24.0179V12.0369C24.0179 12.9384 23.7975 13.633 23.3567 14.1207C22.9159 14.6084 22.3134 14.8522 21.5494 14.8522C20.8147 14.8522 20.227 14.6232 19.7862 14.165C19.3601 13.6921 19.147 13.0345 19.147 12.1921V5.47537H15.4002V12.6576C15.4002 14.3128 15.8116 15.6133 16.6344 16.5591C17.472 17.5049 18.596 17.9778 20.0066 17.9778C20.9323 17.9778 21.7404 17.7635 22.431 17.335C23.1363 16.9064 23.6652 16.33 24.0179 15.6059V17.8448H27.8088Z" fill="#1D7CB1"/>
<path fill-rule="evenodd" clip-rule="evenodd" d="M48.5036 6.09606C47.5485 5.57882 46.4612 5.3202 45.2417 5.3202C44.0221 5.3202 42.9274 5.57882 41.9577 6.09606C40.9879 6.59852 40.2239 7.33005 39.6655 8.29064C39.1218 9.25123 38.85 10.3744 38.85 11.6601C38.85 12.9458 39.1218 14.069 39.6655 15.0296C40.2239 15.9901 40.9879 16.7291 41.9577 17.2463C42.9274 17.7488 44.0221 18 45.2417 18C46.4612 18 47.5485 17.7488 48.5036 17.2463C49.4734 16.7291 50.2301 15.9901 50.7737 15.0296C51.3321 14.069 51.6112 12.9458 51.6112 11.6601C51.6112 10.3744 51.3321 9.25123 50.7737 8.29064C50.2301 7.33005 49.4734 6.59852 48.5036 6.09606ZM43.4123 9.39902C43.9119 8.867 44.5217 8.60099 45.2417 8.60099C45.9616 8.60099 46.5641 8.867 47.0489 9.39902C47.5338 9.91626 47.7763 10.67 47.7763 11.6601C47.7763 12.6502 47.5338 13.4039 47.0489 13.9212C46.5641 14.4384 45.9616 14.697 45.2417 14.697C44.5217 14.697 43.9119 14.4384 43.4123 13.9212C42.9274 13.4039 42.685 12.6502 42.685 11.6601C42.685 10.67 42.9274 9.91626 43.4123 9.39902Z" fill="#1D7CB1"/>
<path d="M59.2519 14.1429L61.9188 5.47537H65.9301L61.5662 17.8448H56.8936L52.5297 5.47537H56.541L59.2519 14.1429Z" fill="#1D7CB1"/>
<path fill-rule="evenodd" clip-rule="evenodd" d="M79.0624 12.3473C79.1359 11.9778 79.1726 11.6379 79.1726 11.3276C79.1726 10.1453 78.9155 9.10345 78.4012 8.20197C77.9016 7.28571 77.189 6.57635 76.2633 6.07389C75.3376 5.57143 74.265 5.3202 73.0454 5.3202C71.8406 5.3202 70.768 5.57882 69.8276 6.09606C68.8872 6.59852 68.1525 7.33005 67.6236 8.29064C67.1093 9.23645 66.8522 10.3596 66.8522 11.6601C66.8522 12.9458 67.1167 14.069 67.6456 15.0296C68.1746 15.9901 68.9019 16.7291 69.8276 17.2463C70.768 17.7488 71.8406 18 73.0454 18C74.074 18 75.007 17.8079 75.8445 17.4236C76.6821 17.0246 77.3726 16.4852 77.9163 15.8054C78.46 15.1108 78.8126 14.3276 78.9742 13.4557H74.985C74.8674 13.899 74.625 14.2611 74.2576 14.5419C73.8903 14.8227 73.4275 14.9631 72.8691 14.9631C72.2079 14.9631 71.6643 14.7635 71.2382 14.3645C70.812 13.9507 70.5769 13.2783 70.5329 12.3473H79.0624ZM74.6984 8.9335C75.1539 9.33251 75.3743 9.93843 75.3596 10.7512H70.5549C70.6137 9.9532 70.8708 9.34729 71.3263 8.9335C71.7818 8.5197 72.3549 8.31281 73.0454 8.31281C73.7066 8.31281 74.2576 8.5197 74.6984 8.9335Z" fill="#1D7CB1"/>
<path d="M84.9061 7.80296C85.3763 7.04926 85.9787 6.45074 86.7134 6.00739C87.4628 5.56404 88.2709 5.34236 89.1378 5.34236V9.39902H88.0579C87.0587 9.39902 86.28 9.6133 85.7216 10.0419C85.1779 10.4704 84.9061 11.1946 84.9061 12.2143V17.8448H81.1373V5.47537H84.9061V7.80296Z" fill="#1D7CB1"/>
<path fill-rule="evenodd" clip-rule="evenodd" d="M108.754 5.3202C109.694 5.3202 110.502 5.53448 111.178 5.96305C111.854 6.39163 112.354 6.97537 112.677 7.71429V5.47537H116.424V17.8448H112.677V15.6059C112.354 16.3448 111.854 16.9286 111.178 17.3571C110.502 17.7857 109.694 18 108.754 18C107.74 18 106.829 17.7488 106.021 17.2463C105.227 16.7291 104.596 15.9901 104.125 15.0296C103.67 14.069 103.442 12.9458 103.442 11.6601C103.442 10.3596 103.67 9.23645 104.125 8.29064C104.596 7.33005 105.227 6.59852 106.021 6.09606C106.829 5.57882 107.74 5.3202 108.754 5.3202ZM109.966 8.64532C109.158 8.64532 108.504 8.91133 108.005 9.44335C107.52 9.97537 107.277 10.7143 107.277 11.6601C107.277 12.6059 107.52 13.3448 108.005 13.8768C108.504 14.4089 109.158 14.6749 109.966 14.6749C110.76 14.6749 111.406 14.4015 111.906 13.8547C112.42 13.3079 112.677 12.5764 112.677 11.6601C112.677 10.7291 112.42 9.99754 111.906 9.46552C111.406 8.91872 110.76 8.64532 109.966 8.64532Z" fill="#1D7CB1"/>
<path d="M131.251 17.8448V5.47537H127.46V12.0369C127.46 12.9384 127.24 13.633 126.799 14.1207C126.358 14.6084 125.756 14.8522 124.992 14.8522C124.257 14.8522 123.669 14.6232 123.228 14.165C122.802 13.6921 122.589 13.0345 122.589 12.1921V5.47537H118.842V12.6576C118.842 14.3128 119.254 15.6133 120.077 16.5591C120.914 17.5049 122.038 17.9778 123.449 17.9778C124.374 17.9778 125.183 17.7635 125.873 17.335C126.578 16.9064 127.107 16.33 127.46 15.6059V17.8448H131.251Z" fill="#1D7CB1"/>
<path fill-rule="evenodd" clip-rule="evenodd" d="M153.534 12.3473C153.607 11.9778 153.644 11.6379 153.644 11.3276C153.644 10.1453 153.387 9.10345 152.873 8.20197C152.373 7.28571 151.66 6.57635 150.735 6.07389C149.809 5.57143 148.737 5.3202 147.517 5.3202C146.312 5.3202 145.239 5.57882 144.299 6.09606C143.359 6.59852 142.624 7.33005 142.095 8.29064C141.581 9.23645 141.324 10.3596 141.324 11.6601C141.324 12.9458 141.588 14.069 142.117 15.0296C142.646 15.9901 143.373 16.7291 144.299 17.2463C145.239 17.7488 146.312 18 147.517 18C148.545 18 149.479 17.8079 150.316 17.4236C151.154 17.0246 151.844 16.4852 152.388 15.8054C152.931 15.1108 153.284 14.3276 153.446 13.4557H149.456C149.339 13.899 149.096 14.2611 148.729 14.5419C148.362 14.8227 147.899 14.9631 147.341 14.9631C146.679 14.9631 146.136 14.7635 145.71 14.3645C145.284 13.9507 145.048 13.2783 145.004 12.3473H153.534ZM149.17 8.9335C149.625 9.33251 149.846 9.93843 149.831 10.7512H145.026C145.085 9.9532 145.342 9.34729 145.798 8.9335C146.253 8.5197 146.826 8.31281 147.517 8.31281C148.178 8.31281 148.729 8.5197 149.17 8.9335Z" fill="#1D7CB1"/>
<path d="M163.411 5.34236C164.822 5.34236 165.938 5.81527 166.761 6.76108C167.599 7.7069 168.017 9.00739 168.017 10.6626V17.8448H164.249V11.1059C164.249 10.2783 164.028 9.63547 163.587 9.17734C163.161 8.70443 162.588 8.46798 161.868 8.46798C161.104 8.46798 160.494 8.71182 160.039 9.19951C159.598 9.68719 159.378 10.3818 159.378 11.2833V17.8448H155.609V5.47537H159.378V7.73645C159.73 6.99754 160.252 6.41379 160.942 5.98522C161.648 5.55665 162.471 5.34236 163.411 5.34236Z" fill="#1D7CB1"/>
<path d="M173.743 17.8448V14.0542H169.842V17.8448H173.743Z" fill="#1D7CB1"/>
<path fill-rule="evenodd" clip-rule="evenodd" d="M181.464 5.3202C182.684 5.3202 183.771 5.57882 184.726 6.09606C185.696 6.59852 186.453 7.33005 186.996 8.29064C187.555 9.25123 187.834 10.3744 187.834 11.6601C187.834 12.9458 187.555 14.069 186.996 15.0296C186.453 15.9901 185.696 16.7291 184.726 17.2463C183.771 17.7488 182.684 18 181.464 18C180.245 18 179.15 17.7488 178.18 17.2463C177.21 16.7291 176.446 15.9901 175.888 15.0296C175.344 14.069 175.073 12.9458 175.073 11.6601C175.073 10.3744 175.344 9.25123 175.888 8.29064C176.446 7.33005 177.21 6.59852 178.18 6.09606C179.15 5.57882 180.245 5.3202 181.464 5.3202ZM181.464 8.60099C180.744 8.60099 180.135 8.867 179.635 9.39902C179.15 9.91626 178.908 10.67 178.908 11.6601C178.908 12.6502 179.15 13.4039 179.635 13.9212C180.135 14.4384 180.744 14.697 181.464 14.697C182.184 14.697 182.787 14.4384 183.272 13.9212C183.756 13.4039 183.999 12.6502 183.999 11.6601C183.999 10.67 183.756 9.91626 183.272 9.39902C182.787 8.867 182.184 8.60099 181.464 8.60099Z" fill="#1D7CB1"/>
<path d="M200.94 6.76108C200.118 5.81527 199.001 5.34236 197.59 5.34236C196.65 5.34236 195.827 5.55665 195.122 5.98522C194.431 6.41379 193.91 6.99754 193.557 7.73645V5.47537H189.788V17.8448H193.557V11.2833C193.557 10.3818 193.777 9.68719 194.218 9.19951C194.674 8.71182 195.284 8.46798 196.048 8.46798C196.768 8.46798 197.341 8.70443 197.767 9.17734C198.208 9.63547 198.428 10.2783 198.428 11.1059V17.8448H202.197V10.6626C202.197 9.00739 201.778 7.7069 200.94 6.76108Z" fill="#1D7CB1"/>
<path d="M208.451 1.44089V17.8448H204.682V1.44089H208.451Z" fill="#1D7CB1"/>
<path d="M225.227 5.34236C226.637 5.34236 227.754 5.81527 228.577 6.76108C229.414 7.7069 229.833 9.00739 229.833 10.6626V17.8448H226.064V11.1059C226.064 10.2783 225.844 9.63547 225.403 9.17734C224.977 8.70443 224.404 8.46798 223.684 8.46798C222.92 8.46798 222.31 8.71182 221.855 9.19951C221.414 9.68719 221.193 10.3818 221.193 11.2833V17.8448H217.424V5.47537H221.193V7.73645C221.546 6.99754 222.068 6.41379 222.758 5.98522C223.463 5.55665 224.286 5.34236 225.227 5.34236Z" fill="#1D7CB1"/>
<path fill-rule="evenodd" clip-rule="evenodd" d="M243.89 12.3473C243.963 11.9778 244 11.6379 244 11.3276C244 10.1453 243.743 9.10345 243.229 8.20197C242.729 7.28571 242.016 6.57635 241.091 6.07389C240.165 5.57143 239.092 5.3202 237.873 5.3202C236.668 5.3202 235.595 5.57882 234.655 6.09606C233.715 6.59852 232.98 7.33005 232.451 8.29064C231.937 9.23645 231.68 10.3596 231.68 11.6601C231.68 12.9458 231.944 14.069 232.473 15.0296C233.002 15.9901 233.729 16.7291 234.655 17.2463C235.595 17.7488 236.668 18 237.873 18C238.901 18 239.834 17.8079 240.672 17.4236C241.509 17.0246 242.2 16.4852 242.744 15.8054C243.287 15.1108 243.64 14.3276 243.802 13.4557H239.812C239.695 13.899 239.452 14.2611 239.085 14.5419C238.718 14.8227 238.255 14.9631 237.697 14.9631C237.035 14.9631 236.492 14.7635 236.066 14.3645C235.639 13.9507 235.404 13.2783 235.36 12.3473H243.89ZM239.526 8.9335C239.981 9.33251 240.202 9.93843 240.187 10.7512H235.382C235.441 9.9532 235.698 9.34729 236.154 8.9335C236.609 8.5197 237.182 8.31281 237.873 8.31281C238.534 8.31281 239.085 8.5197 239.526 8.9335Z" fill="#1D7CB1"/>
</svg>
