<svg width="494" height="59" viewBox="0 0 494 59" fill="none" xmlns="http://www.w3.org/2000/svg">
<path d="M16.2095 17.4384C21.3072 17.4384 25.3709 18.7221 28.4007 21.2894C31.4785 23.8567 33.4022 27.2475 34.1717 31.4618H22.6297C22.2931 29.8149 21.5236 28.5312 20.3213 27.6108C19.1671 26.642 17.7003 26.1576 15.921 26.1576C14.5263 26.1576 13.4683 26.4725 12.7469 27.1022C12.0256 27.6835 11.6649 28.5312 11.6649 29.6453C11.6649 30.9048 12.3141 31.8493 13.6126 32.4791C14.9591 33.1088 17.0511 33.7385 19.8885 34.3682C22.9664 35.0948 25.4912 35.8456 27.4629 36.6207C29.4347 37.3473 31.1419 38.5583 32.5846 40.2537C34.0274 41.9491 34.7488 44.2258 34.7488 47.0837C34.7488 49.4089 34.1236 51.4676 32.8732 53.2599C31.6228 55.0521 29.8194 56.4569 27.4629 57.4741C25.1064 58.4914 22.3171 59 19.095 59C13.6607 59 9.30838 57.789 6.03817 55.367C2.76795 52.945 0.772153 49.4815 0.0507812 44.9766H11.9534C12.1458 46.7204 12.8671 48.0525 14.1175 48.9729C15.416 49.8933 17.0752 50.3535 19.095 50.3535C20.4896 50.3535 21.5477 50.0386 22.269 49.4089C22.9904 48.7307 23.3511 47.8588 23.3511 46.7931C23.3511 45.3883 22.6778 44.3953 21.3312 43.814C20.0328 43.1843 17.8927 42.5304 14.911 41.8522C11.9294 41.2225 9.4767 40.5443 7.55305 39.8177C5.62939 39.0911 3.97023 37.9286 2.57558 36.3301C1.18093 34.6831 0.483604 32.4548 0.483604 29.6453C0.483604 26.0123 1.85421 23.0817 4.59542 20.8535C7.33663 18.5768 11.208 17.4384 16.2095 17.4384Z" fill="#1D7CB1"/>
<path d="M79.8119 37.1293C79.8119 38.1466 79.6917 39.2607 79.4512 40.4717H51.5342C51.6784 43.5234 52.4479 45.7274 53.8426 47.0837C55.2372 48.3916 57.0166 49.0456 59.1807 49.0456C61.0082 49.0456 62.5231 48.5854 63.7253 47.665C64.9276 46.7447 65.7211 45.5579 66.1059 44.1047H79.1627C78.6337 46.9626 77.4795 49.53 75.7001 51.8067C73.9207 54.0349 71.6604 55.803 68.9192 57.1108C66.178 58.3703 63.1242 59 59.7578 59C55.8143 59 52.3036 58.1765 49.2258 56.5296C46.196 54.8342 43.8155 52.4122 42.0842 49.2635C40.3529 46.1149 39.4873 42.4335 39.4873 38.2192C39.4873 33.9565 40.3289 30.275 42.0121 27.1749C43.7434 24.0263 46.1479 21.6285 49.2258 19.9815C52.3036 18.2861 55.8143 17.4384 59.7578 17.4384C63.7494 17.4384 67.2601 18.2619 70.2898 19.9089C73.3196 21.5558 75.652 23.881 77.2871 26.8842C78.9703 29.8391 79.8119 33.2541 79.8119 37.1293ZM67.3322 35.2402C67.3803 32.5759 66.6589 30.5899 65.1681 29.282C63.7253 27.9257 61.9219 27.2475 59.7578 27.2475C57.4975 27.2475 55.6219 27.9257 54.1311 29.282C52.6403 30.6383 51.7987 32.6244 51.6063 35.2402H67.3322Z" fill="#1D7CB1"/>
<path d="M98.5777 4.72291V58.4914H86.2423V4.72291H98.5777Z" fill="#1D7CB1"/>
<path d="M119.43 4.72291V58.4914H107.094V4.72291H119.43Z" fill="#1D7CB1"/>
<path d="M146.125 17.4384C151.319 17.4384 155.671 18.8916 159.182 21.798C162.693 24.656 164.905 28.6039 165.819 33.6416H152.762C152.377 31.8978 151.584 30.5415 150.381 29.5727C149.179 28.6039 147.664 28.1195 145.837 28.1195C143.672 28.1195 141.893 28.9914 140.498 30.7352C139.104 32.4306 138.406 34.9253 138.406 38.2192C138.406 41.5131 139.104 44.032 140.498 45.7759C141.893 47.4713 143.672 48.319 145.837 48.319C147.664 48.319 149.179 47.8346 150.381 46.8658C151.584 45.897 152.377 44.5406 152.762 42.7968H165.819C164.905 47.8346 162.693 51.8067 159.182 54.7131C155.671 57.571 151.319 59 146.125 59C142.182 59 138.671 58.1765 135.593 56.5296C132.563 54.8342 130.183 52.4122 128.452 49.2635C126.72 46.1149 125.855 42.4335 125.855 38.2192C125.855 33.9565 126.696 30.275 128.379 27.1749C130.111 24.0263 132.515 21.6285 135.593 19.9815C138.671 18.2861 142.182 17.4384 146.125 17.4384Z" fill="#1D7CB1"/>
<path d="M187.55 17.4384C190.628 17.4384 193.273 18.1408 195.486 19.5456C197.698 20.9503 199.333 22.8637 200.391 25.2857V17.947H212.654V58.4914H200.391V51.1527C199.333 53.5747 197.698 55.4881 195.486 56.8929C193.273 58.2976 190.628 59 187.55 59C184.232 59 181.25 58.1765 178.605 56.5296C176.009 54.8342 173.941 52.4122 172.402 49.2635C170.911 46.1149 170.165 42.4335 170.165 38.2192C170.165 33.9565 170.911 30.275 172.402 27.1749C173.941 24.0263 176.009 21.6285 178.605 19.9815C181.25 18.2861 184.232 17.4384 187.55 17.4384ZM191.518 28.3374C188.873 28.3374 186.733 29.2094 185.098 30.9532C183.511 32.697 182.717 35.119 182.717 38.2192C182.717 41.3194 183.511 43.7414 185.098 45.4852C186.733 47.2291 188.873 48.101 191.518 48.101C194.115 48.101 196.231 47.2048 197.866 45.4126C199.549 43.6203 200.391 41.2225 200.391 38.2192C200.391 35.1675 199.549 32.7697 197.866 31.0259C196.231 29.2336 194.115 28.3374 191.518 28.3374Z" fill="#1D7CB1"/>
<path d="M233.483 25.5764C235.022 23.1059 236.993 21.1441 239.398 19.6909C241.851 18.2377 244.496 17.5111 247.333 17.5111V30.8079H243.798C240.528 30.8079 237.979 31.5103 236.152 32.915C234.372 34.3198 233.483 36.6934 233.483 40.0357V58.4914H221.147V17.947H233.483V25.5764Z" fill="#1D7CB1"/>
<path d="M263.1 46.0665V58.4914H250.332V46.0665H263.1Z" fill="#1D7CB1"/>
<path d="M288.372 17.4384C292.363 17.4384 295.922 18.2861 299.048 19.9815C302.222 21.6285 304.699 24.0263 306.478 27.1749C308.306 30.3235 309.219 34.0049 309.219 38.2192C309.219 42.4335 308.306 46.1149 306.478 49.2635C304.699 52.4122 302.222 54.8342 299.048 56.5296C295.922 58.1765 292.363 59 288.372 59C284.38 59 280.797 58.1765 277.623 56.5296C274.449 54.8342 271.948 52.4122 270.121 49.2635C268.342 46.1149 267.452 42.4335 267.452 38.2192C267.452 34.0049 268.342 30.3235 270.121 27.1749C271.948 24.0263 274.449 21.6285 277.623 19.9815C280.797 18.2861 284.38 17.4384 288.372 17.4384ZM288.372 28.1921C286.015 28.1921 284.019 29.064 282.384 30.8079C280.797 32.5033 280.004 34.9737 280.004 38.2192C280.004 41.4647 280.797 43.9351 282.384 45.6305C284.019 47.326 286.015 48.1736 288.372 48.1736C290.728 48.1736 292.7 47.326 294.287 45.6305C295.874 43.9351 296.668 41.4647 296.668 38.2192C296.668 34.9737 295.874 32.5033 294.287 30.8079C292.7 29.064 290.728 28.1921 288.372 28.1921Z" fill="#1D7CB1"/>
<path d="M341.152 17.5111C345.769 17.5111 349.424 19.0612 352.117 22.1613C354.858 25.2615 356.229 29.5242 356.229 34.9495V58.4914H343.894V36.4027C343.894 33.6901 343.172 31.5829 341.73 30.0813C340.335 28.5312 338.459 27.7562 336.103 27.7562C333.602 27.7562 331.606 28.5554 330.115 30.1539C328.673 31.7525 327.951 34.0291 327.951 36.984V58.4914H315.616V17.947H327.951V25.3584C329.106 22.9364 330.813 21.023 333.073 19.6182C335.381 18.2135 338.075 17.5111 341.152 17.5111Z" fill="#1D7CB1"/>
<path d="M376.7 4.72291V58.4914H364.365V4.72291H376.7Z" fill="#1D7CB1"/>
<path d="M384.063 6.53941C384.063 4.65025 384.736 3.10017 386.083 1.88916C387.429 0.629721 389.209 0 391.421 0C393.633 0 395.412 0.629721 396.759 1.88916C398.105 3.10017 398.779 4.65025 398.779 6.53941C398.779 8.38013 398.105 9.93021 396.759 11.1897C395.412 12.4007 393.633 13.0062 391.421 13.0062C389.209 13.0062 387.429 12.4007 386.083 11.1897C384.736 9.93021 384.063 8.38013 384.063 6.53941ZM397.552 17.947V58.4914H385.217V17.947H397.552Z" fill="#1D7CB1"/>
<path d="M431.606 17.5111C436.222 17.5111 439.877 19.0612 442.571 22.1613C445.312 25.2615 446.682 29.5242 446.682 34.9495V58.4914H434.347V36.4027C434.347 33.6901 433.626 31.5829 432.183 30.0813C430.788 28.5312 428.913 27.7562 426.556 27.7562C424.055 27.7562 422.06 28.5554 420.569 30.1539C419.126 31.7525 418.405 34.0291 418.405 36.984V58.4914H406.069V17.947H418.405V25.3584C419.559 22.9364 421.266 21.023 423.526 19.6182C425.835 18.2135 428.528 17.5111 431.606 17.5111Z" fill="#1D7CB1"/>
<path d="M493.051 37.1293C493.051 38.1466 492.931 39.2607 492.69 40.4717H464.773C464.917 43.5234 465.687 45.7274 467.081 47.0837C468.476 48.3916 470.255 49.0456 472.42 49.0456C474.247 49.0456 475.762 48.5854 476.964 47.665C478.166 46.7447 478.96 45.5579 479.345 44.1047H492.402C491.873 46.9626 490.718 49.53 488.939 51.8067C487.16 54.0349 484.899 55.803 482.158 57.1108C479.417 58.3703 476.363 59 472.997 59C469.053 59 465.542 58.1765 462.465 56.5296C459.435 54.8342 457.054 52.4122 455.323 49.2635C453.592 46.1149 452.726 42.4335 452.726 38.2192C452.726 33.9565 453.568 30.275 455.251 27.1749C456.982 24.0263 459.387 21.6285 462.465 19.9815C465.542 18.2861 469.053 17.4384 472.997 17.4384C476.988 17.4384 480.499 18.2619 483.529 19.9089C486.558 21.5558 488.891 23.881 490.526 26.8842C492.209 29.8391 493.051 33.2541 493.051 37.1293ZM480.571 35.2402C480.619 32.5759 479.898 30.5899 478.407 29.282C476.964 27.9257 475.161 27.2475 472.997 27.2475C470.736 27.2475 468.861 27.9257 467.37 29.282C465.879 30.6383 465.038 32.6244 464.845 35.2402H480.571Z" fill="#1D7CB1"/>
</svg>
