<svg width="781" height="59" viewBox="0 0 781 59" fill="none" xmlns="http://www.w3.org/2000/svg">
<path fill-rule="evenodd" clip-rule="evenodd" d="M360.42 6.53933C360.42 4.65019 361.098 3.10013 362.454 1.88914C363.81 0.629714 365.603 0 367.831 0C370.059 0 371.851 0.629714 373.208 1.88914C374.564 3.10013 375.242 4.65019 375.242 6.53933C375.242 8.38003 374.564 9.93009 373.208 11.1895C371.851 12.4005 370.059 13.006 367.831 13.006C365.603 13.006 363.81 12.4005 362.454 11.1895C361.098 9.93009 360.42 8.38003 360.42 6.53933ZM374.007 58.4907H361.582V17.9468H374.007V58.4907ZM166.859 19.5453C164.631 18.1406 161.966 17.4382 158.866 17.4382C155.524 17.4382 152.521 18.2859 149.856 19.9813C147.241 21.6282 145.158 24.026 143.608 27.1745C142.106 30.2747 141.355 33.9561 141.355 38.2188C141.355 42.433 142.106 46.1144 143.608 49.263C145.158 52.4115 147.241 54.8335 149.856 56.5289C152.521 58.1758 155.524 58.9993 158.866 58.9993C161.966 58.9993 164.631 58.2969 166.859 56.8922C169.087 55.4874 170.71 53.5741 171.727 51.1521V58.4907H184.152V4.72285H171.727V25.2854C170.71 22.8634 169.087 20.9501 166.859 19.5453ZM156.396 30.9528C158.043 29.209 160.198 28.3371 162.862 28.3371C165.478 28.3371 167.61 29.2332 169.257 31.0255C170.952 32.7693 171.8 35.1671 171.8 38.2188C171.8 41.222 170.952 43.6198 169.257 45.412C167.61 47.2043 165.478 48.1004 162.862 48.1004C160.198 48.1004 158.043 47.2285 156.396 45.4847C154.797 43.7409 153.998 41.3189 153.998 38.2188C153.998 35.1186 154.797 32.6967 156.396 30.9528ZM87.5206 40.4712C87.7628 39.2602 87.8839 38.1461 87.8839 37.1289C87.8839 33.2537 87.0362 29.8387 85.3408 26.8839C83.6938 23.8807 81.3445 21.5556 78.2928 19.9086C75.2411 18.2617 71.7051 17.4382 67.6846 17.4382C63.7126 17.4382 60.1765 18.2859 57.0763 19.9813C53.9762 21.6282 51.5542 24.026 49.8104 27.1745C48.115 30.2747 47.2674 33.9561 47.2674 38.2188C47.2674 42.433 48.1393 46.1144 49.8831 49.263C51.6269 52.4115 54.0247 54.8335 57.0763 56.5289C60.1765 58.1758 63.7126 58.9993 67.6846 58.9993C71.0754 58.9993 74.1513 58.3696 76.9123 57.1101C79.6734 55.8023 81.95 54.0342 83.7423 51.806C85.5345 49.5294 86.6971 46.9621 87.2299 44.1041H74.0786C73.6911 45.5573 72.8918 46.7441 71.6808 47.6644C70.4699 48.5848 68.944 49.045 67.1033 49.045C64.9235 49.045 63.1313 48.391 61.7265 47.0832C60.3218 45.7269 59.5468 43.5229 59.4014 40.4712H87.5206ZM73.134 29.2817C74.6357 30.5895 75.3622 32.5756 75.3138 35.2397H59.4741C59.6679 32.624 60.5155 30.638 62.0172 29.2817C63.5188 27.9254 65.4079 27.2472 67.6846 27.2472C69.8644 27.2472 71.6808 27.9254 73.134 29.2817ZM31.0036 17.9468L22.2118 46.3566L13.2748 17.9468H0.0507812L14.4373 58.4907H29.8411L44.2276 17.9468H31.0036ZM120.082 17.5109C124.732 17.5109 128.414 19.0609 131.126 22.1611C133.887 25.2612 135.268 29.5239 135.268 34.9491V58.4907H122.843V36.4023C122.843 33.6897 122.117 31.5825 120.663 30.0809C119.259 28.5309 117.369 27.7558 114.996 27.7558C112.477 27.7558 110.467 28.5551 108.965 30.1536C107.512 31.7521 106.785 34.0287 106.785 36.9835V58.4907H94.3607V17.9468H106.785V25.3581C107.948 22.9361 109.668 21.0227 111.944 19.618C114.269 18.2132 116.982 17.5109 120.082 17.5109ZM205.131 25.576C206.681 23.1056 208.667 21.1438 211.089 19.6906C213.559 18.2375 216.224 17.5109 219.081 17.5109V30.8075H215.521C212.227 30.8075 209.66 31.5099 207.819 32.9146C206.027 34.3194 205.131 36.6929 205.131 40.0352V58.4907H192.706V17.9468H205.131V25.576ZM262.428 40.4712C262.67 39.2602 262.791 38.1461 262.791 37.1289C262.791 33.2537 261.943 29.8387 260.248 26.8839C258.601 23.8807 256.252 21.5556 253.2 19.9086C250.148 18.2617 246.612 17.4382 242.592 17.4382C238.62 17.4382 235.084 18.2859 231.984 19.9813C228.883 21.6282 226.461 24.026 224.718 27.1745C223.022 30.2747 222.175 33.9561 222.175 38.2188C222.175 42.433 223.046 46.1144 224.79 49.263C226.534 52.4115 228.932 54.8335 231.984 56.5289C235.084 58.1758 238.62 58.9993 242.592 58.9993C245.983 58.9993 249.058 58.3696 251.82 57.1101C254.581 55.8023 256.857 54.0342 258.65 51.806C260.442 49.5294 261.604 46.9621 262.137 44.1041H248.986C248.598 45.5573 247.799 46.7441 246.588 47.6644C245.377 48.5848 243.851 49.045 242.011 49.045C239.831 49.045 238.038 48.391 236.634 47.0832C235.229 45.7269 234.454 43.5229 234.309 40.4712H262.428ZM248.041 29.2817C249.543 30.5895 250.269 32.5756 250.221 35.2397H234.381C234.575 32.624 235.423 30.638 236.924 29.2817C238.426 27.9254 240.315 27.2472 242.592 27.2472C244.772 27.2472 246.588 27.9254 248.041 29.2817ZM288.014 46.3566L296.806 17.9468H310.03L295.643 58.4907H280.239L265.853 17.9468H279.077L288.014 46.3566ZM344.894 19.9813C341.746 18.2859 338.161 17.4382 334.141 17.4382C330.12 17.4382 326.512 18.2859 323.314 19.9813C320.117 21.6282 317.599 24.026 315.758 27.1745C313.966 30.3231 313.07 34.0045 313.07 38.2188C313.07 42.433 313.966 46.1144 315.758 49.263C317.599 52.4115 320.117 54.8335 323.314 56.5289C326.512 58.1758 330.12 58.9993 334.141 58.9993C338.161 58.9993 341.746 58.1758 344.894 56.5289C348.091 54.8335 350.586 52.4115 352.378 49.263C354.219 46.1144 355.139 42.433 355.139 38.2188C355.139 34.0045 354.219 30.3231 352.378 27.1745C350.586 24.026 348.091 21.6282 344.894 19.9813ZM328.11 30.8075C329.757 29.0637 331.767 28.1918 334.141 28.1918C336.514 28.1918 338.5 29.0637 340.099 30.8075C341.697 32.5029 342.497 34.9733 342.497 38.2188C342.497 41.4642 341.697 43.9346 340.099 45.63C338.5 47.3254 336.514 48.1731 334.141 48.1731C331.767 48.1731 329.757 47.3254 328.11 45.63C326.512 43.9346 325.712 41.4642 325.712 38.2188C325.712 34.9733 326.512 32.5029 328.11 30.8075ZM405.545 58.4907V47.8098H401.622C400.072 47.8098 398.958 47.4949 398.279 46.8652C397.65 46.2355 397.335 45.1214 397.335 43.5229V28.4098H405.473V17.9468H397.335V17.9117H384.91V17.9468H379.461V28.4098H384.91V43.3049C384.91 48.7301 386.218 52.6295 388.834 55.003C391.498 57.3281 395.204 58.4907 399.951 58.4907H405.545ZM452.854 58.4907H440.357V51.1521C439.195 53.5256 437.451 55.4148 435.126 56.8195C432.849 58.2243 430.185 58.9266 427.133 58.9266C422.483 58.9266 418.777 57.3766 416.016 54.2764C413.304 51.1763 411.947 46.9136 411.947 41.4884V17.9468H424.299V39.9626C424.299 42.7236 425.002 44.8792 426.407 46.4292C427.86 47.9309 429.797 48.6817 432.219 48.6817C434.738 48.6817 436.724 47.8824 438.177 46.2839C439.63 44.6854 440.357 42.4088 440.357 39.454V17.9468H452.854V58.4907ZM479.8 19.6906C477.378 21.1438 475.392 23.1056 473.842 25.576V17.9468H461.417V58.4907H473.842V40.0352C473.842 36.6929 474.738 34.3194 476.531 32.9146C478.371 31.5099 480.939 30.8075 484.232 30.8075H487.793V17.5109C484.935 17.5109 482.271 18.2375 479.8 19.6906ZM531.502 37.1289C531.502 38.1461 531.381 39.2602 531.139 40.4712H503.02C503.165 43.5229 503.94 45.7269 505.345 47.0832C506.75 48.391 508.542 49.045 510.722 49.045C512.563 49.045 514.088 48.5848 515.299 47.6644C516.51 46.7441 517.31 45.5573 517.697 44.1041H530.849C530.316 46.9621 529.153 49.5294 527.361 51.806C525.569 54.0342 523.292 55.8023 520.531 57.1101C517.77 58.3696 514.694 58.9993 511.303 58.9993C507.331 58.9993 503.795 58.1758 500.695 56.5289C497.643 54.8335 495.245 52.4115 493.502 49.263C491.758 46.1144 490.886 42.433 490.886 38.2188C490.886 33.9561 491.734 30.2747 493.429 27.1745C495.173 24.026 497.595 21.6282 500.695 19.9813C503.795 18.2859 507.331 17.4382 511.303 17.4382C515.324 17.4382 518.86 18.2617 521.911 19.9086C524.963 21.5556 527.312 23.8807 528.959 26.8839C530.655 29.8387 531.502 33.2537 531.502 37.1289ZM518.932 35.2397C518.981 32.5756 518.254 30.5895 516.753 29.2817C515.299 27.9254 513.483 27.2472 511.303 27.2472C509.027 27.2472 507.137 27.9254 505.636 29.2817C504.134 30.638 503.286 32.624 503.093 35.2397H518.932ZM548.66 58.4907V46.0659H535.8V58.4907H548.66ZM574.115 17.4382C578.135 17.4382 581.72 18.2859 584.868 19.9813C588.065 21.6282 590.56 24.026 592.352 27.1745C594.193 30.3231 595.113 34.0045 595.113 38.2188C595.113 42.433 594.193 46.1144 592.352 49.263C590.56 52.4115 588.065 54.8335 584.868 56.5289C581.72 58.1758 578.135 58.9993 574.115 58.9993C570.094 58.9993 566.486 58.1758 563.289 56.5289C560.092 54.8335 557.573 52.4115 555.732 49.263C553.94 46.1144 553.044 42.433 553.044 38.2188C553.044 34.0045 553.94 30.3231 555.732 27.1745C557.573 24.026 560.092 21.6282 563.289 19.9813C566.486 18.2859 570.094 17.4382 574.115 17.4382ZM574.115 28.1918C571.741 28.1918 569.731 29.0637 568.084 30.8075C566.486 32.5029 565.686 34.9733 565.686 38.2188C565.686 41.4642 566.486 43.9346 568.084 45.63C569.731 47.3254 571.741 48.1731 574.115 48.1731C576.488 48.1731 578.474 47.3254 580.073 45.63C581.671 43.9346 582.471 41.4642 582.471 38.2188C582.471 34.9733 581.671 32.5029 580.073 30.8075C578.474 29.0637 576.488 28.1918 574.115 28.1918ZM638.322 22.1611C635.609 19.0609 631.928 17.5109 627.278 17.5109C624.177 17.5109 621.465 18.2132 619.14 19.618C616.863 21.0227 615.143 22.9361 613.981 25.3581V17.9468H601.556V58.4907H613.981V36.9835C613.981 34.0287 614.707 31.7521 616.161 30.1536C617.662 28.5551 619.673 27.7558 622.191 27.7558C624.565 27.7558 626.454 28.5309 627.859 30.0809C629.312 31.5825 630.039 33.6897 630.039 36.4023V58.4907H642.463V34.9491C642.463 29.5239 641.083 25.2612 638.322 22.1611ZM663.083 4.72285V58.4907H650.658V4.72285H663.083ZM672.533 1.88914C671.177 3.10013 670.498 4.65019 670.498 6.53933C670.498 8.38003 671.177 9.93009 672.533 11.1895C673.889 12.4005 675.681 13.006 677.91 13.006C680.138 13.006 681.93 12.4005 683.286 11.1895C684.643 9.93009 685.321 8.38003 685.321 6.53933C685.321 4.65019 684.643 3.10013 683.286 1.88914C681.93 0.629714 680.138 0 677.91 0C675.681 0 673.889 0.629714 672.533 1.88914ZM671.661 58.4907H684.086V17.9468H671.661V58.4907ZM718.385 17.5109C723.036 17.5109 726.717 19.0609 729.43 22.1611C732.191 25.2612 733.571 29.5239 733.571 34.9491V58.4907H721.146V36.4023C721.146 33.6897 720.42 31.5825 718.967 30.0809C717.562 28.5309 715.673 27.7558 713.299 27.7558C710.78 27.7558 708.77 28.5551 707.268 30.1536C705.815 31.7521 705.089 34.0287 705.089 36.9835V58.4907H692.664V17.9468H705.089V25.3581C706.251 22.9361 707.971 21.0227 710.247 19.618C712.573 18.2132 715.285 17.5109 718.385 17.5109ZM779.912 40.4712C780.154 39.2602 780.275 38.1461 780.275 37.1289C780.275 33.2537 779.427 29.8387 777.732 26.8839C776.085 23.8807 773.736 21.5556 770.684 19.9086C767.632 18.2617 764.096 17.4382 760.076 17.4382C756.104 17.4382 752.568 18.2859 749.468 19.9813C746.367 21.6282 743.945 24.026 742.202 27.1745C740.506 30.2747 739.659 33.9561 739.659 38.2188C739.659 42.433 740.531 46.1144 742.274 49.263C744.018 52.4115 746.416 54.8335 749.468 56.5289C752.568 58.1758 756.104 58.9993 760.076 58.9993C763.467 58.9993 766.543 58.3696 769.304 57.1101C772.065 55.8023 774.341 54.0342 776.134 51.806C777.926 49.5294 779.088 46.9621 779.621 44.1041H766.47C766.082 45.5573 765.283 46.7441 764.072 47.6644C762.861 48.5848 761.335 49.045 759.495 49.045C757.315 49.045 755.523 48.391 754.118 47.0832C752.713 45.7269 751.938 43.5229 751.793 40.4712H779.912ZM765.525 29.2817C767.027 30.5895 767.753 32.5756 767.705 35.2397H751.865C752.059 32.624 752.907 30.638 754.408 29.2817C755.91 27.9254 757.799 27.2472 760.076 27.2472C762.256 27.2472 764.072 27.9254 765.525 29.2817Z" fill="#9CA7AD"/>
</svg>
