<svg width="93" height="32" viewBox="0 0 93 32" fill="none" xmlns="http://www.w3.org/2000/svg">
<path d="M52.8089 16.4077C56.2228 15.8494 58.7854 15.3072 63.6497 14.1498C63.8246 14.1104 63.8246 14.0623 63.6249 14.0463C61.4879 13.9194 59.6687 13.7912 58.4006 13.6804C58.0974 13.6556 58.074 13.5521 58.2096 13.3772C58.5521 12.9399 58.9195 12.8582 59.8291 12.8582C60.6745 12.8582 62.7882 12.8816 64.931 12.8976C69.167 12.9224 73.3302 11.8452 78.5399 10.128C78.6026 10.1047 78.5793 10.0639 78.5152 10.0639C71.2267 10.2402 62.4034 10.319 60.9748 10.319C60.7605 10.319 60.7839 10.1732 60.9355 10.0012C61.262 9.60906 61.6293 9.41811 62.8305 9.33064C64.5141 9.20237 78.8796 8.50851 81.2323 8.42979C84.0165 8.32484 85.7234 7.89482 88.012 6.14852C88.841 5.5211 89.6274 4.83934 90.3661 4.10776C90.493 3.97948 90.493 3.89202 90.2539 3.91534C85.891 4.30746 63.6686 6.373 62.6308 6.49982C60.7358 6.74034 59.8611 7.25053 59.1542 8.3744C56.8 12.0361 55.7636 13.8232 52.6922 16.2561C52.5698 16.3436 52.5698 16.4471 52.8089 16.4077ZM46.5 17.2517C46.4232 17.253 46.3478 17.2307 46.2843 17.1876C42.0336 14.6512 37.6839 10.7271 36.8006 6.16455C36.4974 4.44157 37.1431 4.12379 38.2291 3.73167C40.1751 3.02178 44.6429 1.64135 46.5 1.64135C48.3571 1.64135 52.8249 3.02178 54.7709 3.73167C55.8481 4.12233 56.5026 4.44157 56.1994 6.16455C55.3146 10.7271 50.9751 14.6425 46.7157 17.1876C46.6522 17.2307 46.5768 17.253 46.5 17.2517ZM40.1911 16.4135C40.4302 16.4529 40.4302 16.3494 40.3019 16.2386C37.232 13.8057 36.2029 12.0186 33.8415 8.35691C33.1316 7.24032 32.2613 6.72284 30.3634 6.48233C29.327 6.35551 7.10458 4.2958 2.74027 3.89785C2.50121 3.87453 2.50121 3.96199 2.62949 4.09026C3.36512 4.82459 4.15128 5.50651 4.98219 6.13102C7.27222 7.88025 8.97917 8.30735 11.7619 8.4123C14.1161 8.49976 28.4815 9.18487 30.1637 9.31315C31.3765 9.40061 31.7438 9.59157 32.0587 9.98369C32.2045 10.1586 32.2336 10.3029 32.0179 10.3029C30.5908 10.3029 21.7602 10.214 14.4776 10.0464C14.4149 10.0464 14.3901 10.0872 14.4542 10.1105C19.6625 11.8335 23.8272 12.9107 28.0617 12.8801C30.2002 12.8568 32.3138 12.8408 33.1636 12.8408C34.0732 12.8408 34.4391 12.9282 34.7831 13.3597C34.9099 13.5346 34.8939 13.6381 34.5907 13.6629C33.3152 13.7664 31.5048 13.9019 29.3664 14.0288C29.1754 14.0535 29.1754 14.0929 29.343 14.1337C34.2088 15.3072 36.7772 15.8494 40.1911 16.4077V16.4135ZM46.5 18.6015C46.5883 18.597 46.6751 18.5753 46.7551 18.5374C51.9794 15.9296 54.4211 13.5448 57.491 8.59014C58.6396 6.69515 59.2868 5.72724 62.0695 5.32055C66.4339 4.69812 86.1345 3.31769 90.0192 2.78418C91.6868 2.54512 92.1329 2.29002 92.9156 1.47226C93.0424 1.34399 93.0425 1.2332 92.8034 1.25652C92.3092 1.29734 72.6553 2.14279 60.8582 2.56844C57.9618 2.71421 57.1003 2.6559 54.6834 1.85855C51.1019 0.74925 47.8644 0 46.5 0C45.1356 0 41.8981 0.749253 38.3166 1.85126C35.8997 2.64861 35.0295 2.71275 32.1418 2.56115C20.3535 2.12384 0.690762 1.29297 0.196607 1.24924C-0.0424539 1.22446 -0.0424546 1.3367 0.0843641 1.46497C0.858395 2.28565 1.31319 2.54074 2.98079 2.77689C6.86552 3.31186 26.5661 4.69229 30.9305 5.31326C33.7132 5.72141 34.3677 6.69369 35.509 8.58431C38.5789 13.5404 41.0118 15.9223 46.2449 18.5316C46.3235 18.5741 46.4108 18.598 46.5 18.6015Z" fill="#9CA7AD"/>
<path d="M53.4236 6.59569C53.1204 6.4368 52.8012 6.34934 52.8012 6.06946C52.8012 5.9339 52.928 5.82311 53.1918 5.82311C53.4452 5.83667 53.6933 5.90164 53.9207 6.01407L53.9935 5.64673C53.7495 5.56344 53.4934 5.5206 53.2355 5.51991C52.6058 5.51991 52.2545 5.79833 52.2545 6.18899C52.2545 6.57965 52.5257 6.77207 52.909 6.94699C53.2355 7.09276 53.514 7.20208 53.514 7.4426C53.514 7.62481 53.3682 7.74434 53.0912 7.74434C52.8289 7.7323 52.5714 7.66735 52.3347 7.55339L52.2778 7.97611C52.5445 8.03971 52.8172 8.07442 53.0912 8.07961C53.6029 8.07961 54.0562 7.83326 54.0562 7.38575C54.0562 6.93824 53.7428 6.76332 53.4236 6.59569ZM43.3335 5.88142L43.2446 5.57093H41.4953L41.44 5.7167L41.5507 5.77209C41.6236 5.80416 41.6397 5.85227 41.6397 5.93973V8.02859H43.3306V7.71081H42.1848V6.912H43.1731V6.61026H42.1848V5.89308H43.3335V5.88142ZM49.9062 6.59131C49.603 6.43242 49.2838 6.34496 49.2838 6.06509C49.2838 5.92952 49.4106 5.81874 49.6744 5.81874C49.9278 5.83246 50.1757 5.89741 50.4033 6.0097L50.4761 5.64236C50.2321 5.55905 49.976 5.51623 49.7181 5.51554C49.087 5.51554 48.7605 5.79396 48.7605 6.18462C48.7605 6.57528 49.0155 6.76769 49.3902 6.94261C49.7181 7.08838 49.9966 7.19771 49.9966 7.43823C49.9966 7.62044 49.8508 7.73997 49.5738 7.73997C49.311 7.72772 49.0532 7.66278 48.8158 7.54901L48.7605 7.97174C49.0271 8.03534 49.2998 8.07005 49.5738 8.07524C50.084 8.07524 50.5388 7.82889 50.5388 7.38138C50.5388 6.93387 50.224 6.76332 49.9062 6.59569V6.59131ZM50.9266 5.7167L51.0374 5.77209C51.0712 5.78346 51.0996 5.8068 51.1172 5.83767C51.135 5.86856 51.1409 5.90486 51.1336 5.93973V8.02859H51.6758V5.58988H50.9893L50.9266 5.7167ZM48.3654 5.88142L48.278 5.57093H46.5287L46.4733 5.7167L46.5841 5.77209C46.6556 5.80416 46.6716 5.85227 46.6716 5.93973V8.02859H48.3625V7.71081H47.2138V6.912H48.2036V6.61026H47.2138V5.89308H48.3625L48.3654 5.88142ZM45.606 7.22978L44.2941 5.56364H43.7766L43.7125 5.70941L43.8233 5.7648C43.8556 5.77601 43.8829 5.79821 43.9005 5.82751C43.918 5.85683 43.9249 5.89139 43.9195 5.92515V8.01547H44.3131V6.42951L45.5739 8.01693H46.004V5.56802H45.6133L45.606 7.22978ZM40.1907 6.85515L40.4298 6.95865C40.4607 6.96721 40.4874 6.98674 40.5048 7.01359C40.5222 7.04044 40.5293 7.07274 40.5245 7.10442V7.65397C40.4056 7.72134 40.2704 7.75462 40.1339 7.75017C39.663 7.72685 39.3205 7.35077 39.3205 6.80122C39.3205 6.25167 39.6324 5.82749 40.1586 5.82749C40.4266 5.83426 40.684 5.93309 40.8875 6.10736L40.9983 5.70796C40.7333 5.58364 40.4454 5.51566 40.1528 5.50825C39.3948 5.49222 38.7578 5.91495 38.7578 6.82017C38.7578 7.62481 39.3234 8.07961 40.0697 8.07961C40.4066 8.09613 40.7404 8.01024 41.0274 7.83326V6.72396H40.2461L40.1907 6.85515Z" fill="#9CA7AD"/>
<path d="M27.2578 27.702C27.2578 25.8435 28.6149 24.4004 30.4895 24.4004C31.765 24.4004 32.7066 24.998 33.2591 25.9397L32.6134 26.4178C32.4036 26.0412 32.0934 25.7301 31.7175 25.5192C31.3415 25.3081 30.9144 25.2055 30.4837 25.2225C29.0551 25.2225 28.1383 26.2983 28.1383 27.7006C28.1383 29.1029 29.096 30.1787 30.5551 30.1787C31.3685 30.1787 32.0944 29.8594 32.4938 29.4367V28.1845H31.2169V27.4032H33.3553V29.8172C32.9883 30.1896 32.5511 30.4856 32.0689 30.688C31.5867 30.8904 31.0692 30.9953 30.5464 30.9964C28.6484 31.0052 27.2578 29.5606 27.2578 27.702Z" fill="#9CA7AD"/>
<path d="M35.2051 24.5195H38.5301V25.2848H36.0666V27.2877H38.3362V28.053H36.0666V30.1112H38.5301V30.8765H35.2051V24.5195Z" fill="#9CA7AD"/>
<path d="M41.2756 26.3548V30.8925H40.4141V24.5195H40.6298L44.9927 29.0588V24.5195H45.8541V31.0048H45.6384L41.2756 26.3548Z" fill="#9CA7AD"/>
<path d="M48.0312 24.5195H51.3562V25.2848H48.8927V27.2877H51.1638V28.053H48.8927V30.1112H51.3562V30.8765H48.0312V24.5195Z" fill="#9CA7AD"/>
<path d="M52.6973 29.3692L53.3751 28.9786C53.6462 29.6724 54.1652 30.1914 55.0179 30.1914C55.8153 30.1914 56.2861 29.7278 56.2861 29.1069C56.2861 28.5879 55.9756 28.2527 55.2336 28.053L54.5879 27.8926C53.6856 27.6623 53.0631 27.0792 53.0631 26.2177C53.0631 25.1974 53.8459 24.416 55.066 24.416C55.4849 24.4033 55.8986 24.5125 56.2568 24.7305C56.6149 24.9482 56.9021 25.2654 57.0834 25.6434L56.4377 26.0807C56.1345 25.5545 55.6724 25.2353 55.0573 25.2353C54.3794 25.2353 53.9494 25.6172 53.9494 26.1682C53.9494 26.6055 54.2599 26.9174 54.7861 27.0617L55.4173 27.2294C56.5091 27.5209 57.1796 28.104 57.1796 29.0879C57.1796 30.1958 56.2861 31.0179 55.0179 31.0179C53.7016 31.0048 53.0078 30.1826 52.6973 29.3692Z" fill="#9CA7AD"/>
<path d="M58.8633 24.5195H59.7248V30.8925H58.8633V24.5195Z" fill="#9CA7AD"/>
<path d="M61.2715 29.3692L61.9493 28.9786C62.2204 29.6724 62.7394 30.1914 63.5936 30.1914C64.3909 30.1914 64.8618 29.7278 64.8618 29.1069C64.8618 28.5879 64.5498 28.2527 63.8079 28.053L63.1621 27.8926C62.2613 27.6623 61.6388 27.0792 61.6388 26.2177C61.6388 25.1973 62.4201 24.416 63.6402 24.416C64.0595 24.4033 64.4733 24.5127 64.8316 24.7305C65.1899 24.9484 65.4773 25.2654 65.6591 25.6434L65.0134 26.0807C64.7102 25.5545 64.2466 25.2353 63.6329 25.2353C62.9551 25.2353 62.5236 25.6172 62.5236 26.1682C62.5236 26.6055 62.8356 26.9174 63.3618 27.0617L63.9915 27.2294C65.0848 27.5209 65.7539 28.104 65.7539 29.0879C65.7539 30.1958 64.8618 31.0179 63.5936 31.0179C62.2773 31.0048 61.5834 30.1826 61.2715 29.3692Z" fill="#9CA7AD"/>
</svg>
