<svg width="119" height="118" viewBox="0 0 119 118" fill="none" xmlns="http://www.w3.org/2000/svg">
<path d="M41.9825 64.9039C48.7665 60.0612 52.1585 56.2105 52.1585 53.3519C52.1585 51.6025 51.4012 50.7279 49.8865 50.7279C49.0332 50.7279 48.4039 51.0265 47.9985 51.6239C47.6145 52.2212 47.4012 53.1492 47.3585 54.4079H42.0145C42.1425 51.6559 42.9745 49.5865 44.5105 48.1999C46.0465 46.8132 47.9879 46.1199 50.3345 46.1199C52.7879 46.1199 54.6332 46.7385 55.8705 47.9759C57.1292 49.2132 57.7585 50.8239 57.7585 52.8079C57.7585 55.0052 56.9159 57.1599 55.2305 59.2719C53.5452 61.3625 51.5292 63.1332 49.1825 64.5839H58.1105V68.9999H41.9825V64.9039ZM60.4275 65.0959V60.5199L70.7635 46.3439H76.6515V60.3279H79.3715V65.0959H76.6515V69.2559H71.1155V65.0959H60.4275ZM71.5635 52.6799L65.9955 60.3279H71.5635V52.6799Z" fill="#1D7CB1"/>
<path d="M95.9782 80.5059C84.1041 101.072 57.8057 108.119 37.2391 96.245C16.6725 84.3708 9.62588 58.0724 21.5 37.5059" stroke="#E3480E" stroke-width="8"/>
<path d="M31.4278 24.756C45.02 13.3475 64.824 11.0293 81.0823 20.416C99.9047 31.2831 107.517 54.1101 99.8623 73.7559" stroke="#C7DEEB" stroke-width="8" stroke-dasharray="10 10"/>
<path d="M7.68251 38.4079L24.5954 33.8761L29.1271 50.7889" stroke="#E3480E" stroke-width="8"/>
</svg>
