<svg width="722" height="59" viewBox="0 0 722 59" fill="none" xmlns="http://www.w3.org/2000/svg">
<path fill-rule="evenodd" clip-rule="evenodd" d="M614.78 1.86411C613.442 3.05905 612.773 4.58857 612.773 6.45267C612.773 8.26897 613.442 9.79849 614.78 11.0412C616.117 12.2362 617.885 12.8336 620.083 12.8336C622.281 12.8336 624.049 12.2362 625.386 11.0412C626.724 9.79849 627.393 8.26897 627.393 6.45267C627.393 4.58857 626.724 3.05905 625.386 1.86411C624.049 0.621368 622.281 0 620.083 0C617.885 0 616.117 0.621368 614.78 1.86411ZM626.175 57.7155V17.709H613.92V57.7155H626.175ZM164.581 19.2863C162.383 17.9002 159.756 17.2071 156.698 17.2071C153.401 17.2071 150.439 18.0436 147.811 19.7165C145.231 21.3416 143.177 23.7076 141.648 26.8144C140.167 29.8735 139.426 33.5061 139.426 37.7122C139.426 41.8706 140.167 45.5033 141.648 48.6101C143.177 51.7169 145.231 54.1068 147.811 55.7797C150.439 57.4048 153.401 58.2174 156.698 58.2174C159.756 58.2174 162.383 57.5243 164.581 56.1382C166.779 54.7521 168.38 52.8641 169.383 50.4742V57.7155H181.638V4.66026H169.383V24.9503C168.38 22.5604 166.779 20.6724 164.581 19.2863ZM154.261 30.5426C155.886 28.8219 158.012 27.9616 160.639 27.9616C163.22 27.9616 165.322 28.8458 166.946 30.6143C168.618 32.335 169.455 34.701 169.455 37.7122C169.455 40.6757 168.618 43.0417 166.946 44.8102C165.322 46.5787 163.22 47.463 160.639 47.463C158.012 47.463 155.886 46.6026 154.261 44.8819C152.684 43.1612 151.896 40.7713 151.896 37.7122C151.896 34.6532 152.684 32.2633 154.261 30.5426ZM86.3263 39.9348C86.5651 38.7399 86.6846 37.6406 86.6846 36.6368C86.6846 32.813 85.8485 29.4433 84.1762 26.5276C82.5518 23.5642 80.2346 21.2699 77.2245 19.6448C74.2145 18.0197 70.7267 17.2071 66.7611 17.2071C62.8433 17.2071 59.3555 18.0436 56.2977 19.7165C53.2399 21.3416 50.851 23.7076 49.131 26.8144C47.4588 29.8735 46.6227 33.5061 46.6227 37.7122C46.6227 41.8706 47.4827 45.5033 49.2027 48.6101C50.9227 51.7169 53.2877 54.1068 56.2977 55.7797C59.3555 57.4048 62.8433 58.2174 66.7611 58.2174C70.1056 58.2174 73.1395 57.596 75.8629 56.3533C78.5862 55.0628 80.8318 53.3181 82.5996 51.1195C84.3674 48.873 85.514 46.3397 86.0396 43.5196H73.0678C72.6856 44.9536 71.8973 46.1246 70.7028 47.0328C69.5084 47.9409 68.0034 48.395 66.1878 48.395C64.0378 48.395 62.27 47.7497 60.8844 46.4592C59.4989 45.1209 58.7344 42.9461 58.5911 39.9348H86.3263ZM72.1362 28.8936C73.6173 30.1841 74.334 32.1438 74.2862 34.7727H58.6627C58.8539 32.1916 59.69 30.2319 61.1711 28.8936C62.6522 27.5553 64.5156 26.8861 66.7611 26.8861C68.9111 26.8861 70.7028 27.5553 72.1362 28.8936ZM30.581 17.709L21.9093 45.7422L13.0942 17.709H0.0507812L14.2409 57.7155H29.4343L43.6244 17.709H30.581ZM118.443 17.2788C123.03 17.2788 126.661 18.8083 129.337 21.8674C132.06 24.9264 133.422 29.1326 133.422 34.4859V57.7155H121.167V35.9198C121.167 33.2432 120.45 31.164 119.017 29.6823C117.631 28.1527 115.768 27.388 113.427 27.388C110.942 27.388 108.959 28.1766 107.478 29.754C106.045 31.3313 105.328 33.5778 105.328 36.4934V57.7155H93.073V17.709H105.328V25.022C106.475 22.6321 108.171 20.7441 110.416 19.358C112.71 17.9719 115.385 17.2788 118.443 17.2788ZM228.059 36.6368C228.059 37.6406 227.94 38.7399 227.701 39.9348H199.966C200.109 42.9461 200.873 45.1209 202.259 46.4592C203.645 47.7497 205.412 48.395 207.562 48.395C209.378 48.395 210.883 47.9409 212.077 47.0328C213.272 46.1246 214.06 44.9536 214.442 43.5196H227.414C226.889 46.3397 225.742 48.873 223.974 51.1195C222.206 53.3181 219.961 55.0628 217.237 56.3533C214.514 57.596 211.48 58.2174 208.136 58.2174C204.218 58.2174 200.73 57.4048 197.672 55.7797C194.662 54.1068 192.297 51.7169 190.577 48.6101C188.857 45.5033 187.997 41.8706 187.997 37.7122C187.997 33.5061 188.833 29.8735 190.506 26.8144C192.226 23.7076 194.615 21.3416 197.672 19.7165C200.73 18.0436 204.218 17.2071 208.136 17.2071C212.101 17.2071 215.589 18.0197 218.599 19.6448C221.609 21.2699 223.926 23.5642 225.551 26.5276C227.223 29.4433 228.059 32.813 228.059 36.6368ZM215.661 34.7727C215.709 32.1438 214.992 30.1841 213.511 28.8936C212.077 27.5553 210.286 26.8861 208.136 26.8861C205.89 26.8861 204.027 27.5553 202.546 28.8936C201.065 30.2319 200.228 32.1916 200.037 34.7727H215.661ZM252.579 19.4297C250.191 20.8636 248.232 22.7994 246.703 25.2371V17.709H234.448V57.7155H246.703V39.5047C246.703 36.2066 247.587 33.8646 249.354 32.4784C251.17 31.0923 253.702 30.3992 256.951 30.3992H260.463V17.2788C257.644 17.2788 255.016 17.9958 252.579 19.4297ZM303.576 36.6368C303.576 37.6406 303.456 38.7399 303.217 39.9348H275.482C275.625 42.9461 276.39 45.1209 277.775 46.4592C279.161 47.7497 280.929 48.395 283.079 48.395C284.894 48.395 286.399 47.9409 287.594 47.0328C288.788 46.1246 289.577 44.9536 289.959 43.5196H302.931C302.405 46.3397 301.258 48.873 299.491 51.1195C297.723 53.3181 295.477 55.0628 292.754 56.3533C290.031 57.596 286.997 58.2174 283.652 58.2174C279.734 58.2174 276.247 57.4048 273.189 55.7797C270.179 54.1068 267.814 51.7169 266.094 48.6101C264.374 45.5033 263.514 41.8706 263.514 37.7122C263.514 33.5061 264.35 29.8735 266.022 26.8144C267.742 23.7076 270.131 21.3416 273.189 19.7165C276.247 18.0436 279.734 17.2071 283.652 17.2071C287.618 17.2071 291.106 18.0197 294.116 19.6448C297.126 21.2699 299.443 23.5642 301.067 26.5276C302.74 29.4433 303.576 32.813 303.576 36.6368ZM291.177 34.7727C291.225 32.1438 290.508 30.1841 289.027 28.8936C287.594 27.5553 285.802 26.8861 283.652 26.8861C281.407 26.8861 279.543 27.5553 278.062 28.8936C276.581 30.2319 275.745 32.1916 275.554 34.7727H291.177ZM333.041 19.2863C330.843 17.9002 328.215 17.2071 325.158 17.2071C321.861 17.2071 318.899 18.0436 316.271 19.7165C313.691 21.3416 311.636 23.7076 310.107 26.8144C308.626 29.8735 307.886 33.5061 307.886 37.7122C307.886 41.8706 308.626 45.5033 310.107 48.6101C311.636 51.7169 313.691 54.1068 316.271 55.7797C318.899 57.4048 321.861 58.2174 325.158 58.2174C328.215 58.2174 330.843 57.5243 333.041 56.1382C335.239 54.7521 336.863 52.8641 337.914 50.4742V57.7155H350.098V17.709H337.914V24.9503C336.863 22.5604 335.239 20.6724 333.041 19.2863ZM322.721 30.5426C324.345 28.8219 326.471 27.9616 329.099 27.9616C331.679 27.9616 333.781 28.8458 335.406 30.6143C337.078 32.335 337.914 34.701 337.914 37.7122C337.914 40.6757 337.078 43.0417 335.406 44.8102C333.781 46.5787 331.679 47.463 329.099 47.463C326.471 47.463 324.345 46.6026 322.721 44.8819C321.144 43.1612 320.356 40.7713 320.356 37.7122C320.356 34.6532 321.144 32.2633 322.721 30.5426ZM398.311 17.709V57.7155H385.984V50.4742C384.837 52.8163 383.117 54.6804 380.824 56.0665C378.578 57.4526 375.951 58.1457 372.94 58.1457C368.354 58.1457 364.699 56.6162 361.975 53.5571C359.3 50.4981 357.962 46.2919 357.962 40.9386V17.709H370.145V39.433C370.145 42.1574 370.838 44.2844 372.224 45.8139C373.657 47.2957 375.568 48.0365 377.957 48.0365C380.442 48.0365 382.401 47.2479 383.834 45.6705C385.267 44.0932 385.984 41.8467 385.984 38.9311V17.709H398.311ZM429.404 57.7155V47.1762H425.534C424.005 47.1762 422.906 46.8655 422.237 46.2441C421.616 45.6227 421.305 44.5234 421.305 42.9461V28.0333H429.332V17.9127H403.675V28.0333H409.05V42.731C409.05 48.0843 410.34 51.932 412.92 54.2741C415.548 56.5684 419.203 57.7155 423.885 57.7155H429.404ZM454.997 17.2071C458.962 17.2071 462.498 18.0436 465.603 19.7165C468.757 21.3416 471.217 23.7076 472.985 26.8144C474.801 29.9213 475.708 33.5539 475.708 37.7122C475.708 41.8706 474.801 45.5033 472.985 48.6101C471.217 51.7169 468.757 54.1068 465.603 55.7797C462.498 57.4048 458.962 58.2174 454.997 58.2174C451.031 58.2174 447.472 57.4048 444.318 55.7797C441.165 54.1068 438.68 51.7169 436.865 48.6101C435.097 45.5033 434.213 41.8706 434.213 37.7122C434.213 33.5539 435.097 29.9213 436.865 26.8144C438.68 23.7076 441.165 21.3416 444.318 19.7165C447.472 18.0436 451.031 17.2071 454.997 17.2071ZM454.997 27.8182C452.655 27.8182 450.673 28.6785 449.048 30.3992C447.472 32.0721 446.683 34.5098 446.683 37.7122C446.683 40.9147 447.472 43.3524 449.048 45.0253C450.673 46.6982 452.655 47.5346 454.997 47.5346C457.338 47.5346 459.297 46.6982 460.873 45.0253C462.45 43.3524 463.238 40.9147 463.238 37.7122C463.238 34.5098 462.45 32.0721 460.873 30.3992C459.297 28.6785 457.338 27.8182 454.997 27.8182ZM492.598 57.7155V45.4555H479.913V57.7155H492.598ZM517.705 17.2071C521.671 17.2071 525.206 18.0436 528.312 19.7165C531.465 21.3416 533.926 23.7076 535.694 26.8144C537.509 29.9213 538.417 33.5539 538.417 37.7122C538.417 41.8706 537.509 45.5033 535.694 48.6101C533.926 51.7169 531.465 54.1068 528.312 55.7797C525.206 57.4048 521.671 58.2174 517.705 58.2174C513.74 58.2174 510.18 57.4048 507.027 55.7797C503.874 54.1068 501.389 51.7169 499.574 48.6101C497.806 45.5033 496.922 41.8706 496.922 37.7122C496.922 33.5539 497.806 29.9213 499.574 26.8144C501.389 23.7076 503.874 21.3416 507.027 19.7165C510.18 18.0436 513.74 17.2071 517.705 17.2071ZM517.705 27.8182C515.364 27.8182 513.381 28.6785 511.757 30.3992C510.18 32.0721 509.392 34.5098 509.392 37.7122C509.392 40.9147 510.18 43.3524 511.757 45.0253C513.381 46.6982 515.364 47.5346 517.705 47.5346C520.047 47.5346 522.005 46.6982 523.582 45.0253C525.159 43.3524 525.947 40.9147 525.947 37.7122C525.947 34.5098 525.159 32.0721 523.582 30.3992C522.005 28.6785 520.047 27.8182 517.705 27.8182ZM581.036 21.8674C578.36 18.8083 574.729 17.2788 570.142 17.2788C567.084 17.2788 564.409 17.9719 562.115 19.358C559.87 20.7441 558.174 22.6321 557.027 25.022V17.709H544.772V57.7155H557.027V36.4934C557.027 33.5778 557.744 31.3313 559.177 29.754C560.658 28.1766 562.641 27.388 565.125 27.388C567.467 27.388 569.33 28.1527 570.716 29.6823C572.149 31.164 572.866 33.2432 572.866 35.9198V57.7155H585.121V34.4859C585.121 29.1326 583.759 24.9264 581.036 21.8674ZM605.458 4.66026V57.7155H593.203V4.66026H605.458ZM660.006 17.2788C664.593 17.2788 668.224 18.8083 670.899 21.8674C673.623 24.9264 674.984 29.1326 674.984 34.4859V57.7155H662.729V35.9198C662.729 33.2432 662.013 31.164 660.579 29.6823C659.194 28.1527 657.33 27.388 654.989 27.388C652.505 27.388 650.522 28.1766 649.041 29.754C647.608 31.3313 646.891 33.5778 646.891 36.4934V57.7155H634.636V17.709H646.891V25.022C648.038 22.6321 649.734 20.7441 651.979 19.358C654.273 17.9719 656.948 17.2788 660.006 17.2788ZM720.692 39.9348C720.931 38.7399 721.051 37.6406 721.051 36.6368C721.051 32.813 720.215 29.4433 718.542 26.5276C716.918 23.5642 714.601 21.2699 711.591 19.6448C708.581 18.0197 705.093 17.2071 701.127 17.2071C697.209 17.2071 693.722 18.0436 690.664 19.7165C687.606 21.3416 685.217 23.7076 683.497 26.8144C681.825 29.8735 680.989 33.5061 680.989 37.7122C680.989 41.8706 681.849 45.5033 683.569 48.6101C685.289 51.7169 687.654 54.1068 690.664 55.7797C693.722 57.4048 697.209 58.2174 701.127 58.2174C704.472 58.2174 707.506 57.596 710.229 56.3533C712.952 55.0628 715.198 53.3181 716.966 51.1195C718.734 48.873 719.88 46.3397 720.406 43.5196H707.434C707.052 44.9536 706.263 46.1246 705.069 47.0328C703.875 47.9409 702.37 48.395 700.554 48.395C698.404 48.395 696.636 47.7497 695.251 46.4592C693.865 45.1209 693.101 42.9461 692.957 39.9348H720.692ZM706.502 28.8936C707.983 30.1841 708.7 32.1438 708.652 34.7727H693.029C693.22 32.1916 694.056 30.2319 695.537 28.8936C697.018 27.5553 698.882 26.8861 701.127 26.8861C703.277 26.8861 705.069 27.5553 706.502 28.8936Z" fill="#1D7CB1"/>
</svg>
