<svg width="94" height="84" viewBox="0 0 94 84" fill="none" xmlns="http://www.w3.org/2000/svg">
<rect y="0.255859" width="74.811" height="82.9231" fill="#E8F2F7"/>
<rect x="8" y="21.2559" width="9" height="9" fill="#C7DEEB"/>
<rect x="8" y="39.2559" width="9" height="9" fill="#C7DEEB"/>
<path d="M89.7399 38.5624C89.7399 47.0558 82.8546 53.9411 74.3612 53.9411C65.8677 53.9411 58.9824 47.0558 58.9824 38.5624C58.9824 30.0689 65.8677 23.1836 74.3612 23.1836C82.8546 23.1836 89.7399 30.0689 89.7399 38.5624Z" stroke="#E3480E" stroke-width="8"/>
<path d="M74.5 50C80.8513 50 86 44.8513 86 38.5C86 32.1487 80.8513 27 74.5 27C68.1487 27 63 32.1487 63 38.5C63 44.8513 68.1487 50 74.5 50Z" fill="white"/>
<path d="M67 37.736C67 39.488 68.2454 40.408 69.7706 40.408C70.5016 40.408 71.1514 40.144 71.6387 39.64L70.9077 38.928C70.6189 39.208 70.267 39.392 69.7886 39.392C68.9223 39.392 68.3627 38.768 68.3627 37.696C68.3627 36.648 69.0035 36.016 69.8247 36.016C70.2309 36.016 70.5196 36.168 70.8175 36.408L71.5485 35.68C71.1514 35.32 70.5377 35 69.8067 35C68.2905 35 67 36.008 67 37.736Z" fill="#E3480E"/>
<path d="M72.5324 40.312H73.8591V38.136H75.8897V40.312H77.2253V35.096H75.8897V37.104H73.8591V35.096H72.5324V40.312Z" fill="#E3480E"/>
<path d="M78.6136 40.312H79.9402V38.288H81.9798V37.296H79.9402V36.088H82.3227V35.096H78.6136V40.312Z" fill="#E3480E"/>
<line x1="23" y1="47.2559" x2="35" y2="47.2559" stroke="#C7DEEB" stroke-width="2"/>
<line x1="23" y1="40.2559" x2="41" y2="40.2559" stroke="#C7DEEB" stroke-width="2"/>
<line x1="23" y1="29.2559" x2="35" y2="29.2559" stroke="#C7DEEB" stroke-width="2"/>
<line x1="23" y1="22.2559" x2="41" y2="22.2559" stroke="#C7DEEB" stroke-width="2"/>
<line y1="4.25586" x2="75" y2="4.25586" stroke="#1D7CB1" stroke-width="8"/>
<circle cx="6.10547" cy="4.55859" r="1.69727" fill="white"/>
<circle cx="12.8945" cy="4.55859" r="1.69727" fill="white"/>
<circle cx="19.6836" cy="4.55859" r="1.69727" fill="white"/>
</svg>
