<svg width="119" height="15" viewBox="0 0 119 15" fill="none" xmlns="http://www.w3.org/2000/svg">
<path d="M101.665 5.93692V14.9822H104.666V8.95988H115.587V14.9822H118.585V5.95261L101.665 5.93692ZM104.331 3.01098H115.869C117.472 2.70303 118.664 1.33583 119 0.0132097H101.201C101.534 1.33624 102.743 2.70303 104.331 3.01098ZM92.577 14.988C94.0899 14.368 94.9038 13.2955 95.2155 12.0406H81.757L81.7655 0.0206401L78.7486 0.0288962V14.988H92.577ZM56.3135 2.97053H66.9695C68.576 2.51933 69.925 1.33624 70.2538 0.0247681H53.3265V8.86493H67.1809V11.9671L56.3135 11.9754C54.6106 12.4344 53.1664 13.5399 52.446 15L53.3265 14.9843H70.1577V5.92578H56.3135V2.97053ZM30.0075 2.99901H41.5419C43.1466 2.68982 44.3393 1.32386 44.6737 0H26.8757C27.2079 1.32386 28.4181 2.68982 30.0075 2.99901ZM30.0075 8.91116H41.5419C43.1466 8.60528 44.3393 7.23808 44.6737 5.91339H26.8757C27.2079 7.23849 28.4181 8.60528 30.0075 8.91116ZM30.0075 14.9864H41.5419C43.1466 14.678 44.3393 13.3112 44.6737 11.9882H26.8757C27.2079 13.3116 28.4181 14.678 30.0075 14.9864ZM0 0.0363266C0.346745 1.34367 1.51765 2.67991 3.12412 3.0147H7.9794L8.22707 3.10923V14.9529H11.2589V3.10923L11.5344 3.0147H16.3939C18.0183 2.61015 19.164 1.34367 19.5048 0.0363266V0.00743044H0V0.0363266Z" fill="#9CA7AD"/>
</svg>
